# xmcd
#
# Track frame offsets: 
#        150
#        18537
#        38514
#        59019
#        76267
#        100616
#        124024
#        145012
#        166351
#        187831
#
# Disc length: 2711 seconds
#
# Revision: 3
# Processed by: cddbd v1.5.2PL0 Copyright (c) Steve Scherf et al.
# Submitted via: ExactAudioCopy v0.99pb5
#
DISCID=750a950a
DTITLE=Torun Eriksen - Prayers and Observations
DYEAR=2005
DGENRE=Jazz
TTITLE0=Joy
TTITLE1=My Boys
TTITLE2=Way to Go
TTITLE3=Song of Sadness
TTITLE4=Featuring Youth
TTITLE5=The Sky from where I Live
TTITLE6=Stories
TTITLE7=This is Real
TTITLE8=Tired
TTITLE9=Saviour
EXTD=YEAR: 2006
EXTT0=
EXTT1=
EXTT2=
EXTT3=
EXTT4=
EXTT5=
EXTT6=
EXTT7=
EXTT8=
EXTT9=
PLAYORDER=
